# xmcd
#
# Track frame offsets: 
#        150
#        16770
#        51645
#        83215
#
# Disc length: 1429 seconds
#
# Revision: 0
# Processed by: cddbd v1.5.2PL0 Copyright (c) Steve Scherf et al.
# Submitted via: ExactAudioCopy v0.95b4
#
DISCID=2a059304
DTITLE=Alex B meets John P - Together
DYEAR=2002
DGENRE=
TTITLE0=Radio Edit
TTITLE1=Extended Club Mix
TTITLE2=DJ Haooy Vibes Mix
TTITLE3=Cash and Chocolate Mix
EXTD=
EXTT0=
EXTT1=
EXTT2=
EXTT3=
PLAYORDER=
